<svg width="230" height="161" viewBox="0 0 230 161" fill="none" xmlns="http://www.w3.org/2000/svg">
<path d="M97.8114 5.55926C98.2927 2.34691 101.385 -0.134097 104.625 0.0140232C111.512 0.0140232 118.409 -0.0230068 125.297 0.0232807C128.731 -0.115582 131.87 2.85607 131.953 6.29986C132.083 11.6599 131.907 17.0293 132.027 22.3894C133.675 23.13 135.499 22.8708 137.258 22.8893C140.692 22.8522 144.136 22.8708 147.58 22.9078C150.098 22.9911 152.949 23.9539 154.106 26.3701C155.495 28.7307 155.273 31.8413 153.56 33.9797C150.616 37.6364 146.284 39.8212 141.997 41.5061C141.136 43.4872 139.637 45.6905 137.22 45.6812C134.332 46.07 131.166 43.5242 131.564 40.4878C131.509 37.5902 134.378 35.1277 137.23 35.4609C138.655 35.5813 139.683 36.7292 140.998 37.1551C142.007 37.1458 142.877 36.5626 143.738 36.0997C145.941 34.7944 148.255 33.4613 149.737 31.3043C150.44 30.2953 150.477 28.6474 149.45 27.8328C146.7 27.0366 143.83 27.6754 141.035 27.5088C136.609 27.2218 132.175 27.6106 127.75 27.2495C127.546 20.4268 127.648 13.5948 127.676 6.77199C127.306 5.66109 126.713 4.28172 125.288 4.42059C118.604 4.27247 111.911 4.3743 105.227 4.3743C103.671 4.17989 102.098 5.36485 102.107 6.9664C101.801 13.7244 102.394 20.5286 101.792 27.2773C96.793 27.7217 91.757 27.194 86.7487 27.5088C84.4991 27.3977 82.2403 27.3699 80.0092 27.7495C78.4169 31.0173 79.75 34.8037 79.1575 38.266C78.4169 40.2378 76.6025 41.7931 74.6306 42.4596C74.6306 38.7288 74.6399 34.9981 74.6306 31.2673C74.6676 29.0548 74.9639 26.5738 76.6395 24.9629C78.0374 23.491 80.1203 22.9633 82.0829 22.88C87.1467 22.7597 92.2198 22.9818 97.2837 22.7782C98.265 17.0848 97.2467 11.2619 97.8299 5.53149L97.8114 5.55926Z" fill="white"/>
<path d="M107.616 32.7299C109.921 31.8319 112.837 33.6279 112.633 36.1922C113.087 38.8213 109.921 41.0431 107.579 39.8397C104.431 38.8769 104.551 33.739 107.616 32.7299Z" fill="white"/>
<path d="M89.3955 35.0998C91.932 33.2761 95.9405 34.3778 97.181 37.2476C97.6995 39.025 97.6069 41.145 96.3479 42.5984C95.1351 43.9407 93.2281 44.8017 91.4136 44.4036C90.3305 44.0981 89.3585 43.4871 88.3864 42.9409C85.2481 44.5425 81.7581 46.0329 79.7307 49.0694C79.1012 49.9488 79.4159 51.069 79.4344 52.0596C80.3694 52.3928 81.323 52.8002 82.3413 52.7631C87.5625 52.7816 92.7745 52.7261 97.9957 52.7816C97.9309 47.2086 100.338 41.4412 105.254 38.5066C106.494 39.997 108.447 40.3118 109.938 41.3764C110.067 41.0894 110.336 40.5247 110.466 40.2377C111.854 42.2096 113.298 44.2277 115.27 45.6626C115.835 46.1162 116.696 45.9218 117.159 45.4127C118.233 44.524 119.029 43.3575 119.899 42.2744C121.723 42.6077 123.343 41.7467 124.657 40.5618C129.138 42.8391 131.008 48.0603 131.415 52.7816C136.775 52.7261 142.145 52.7724 147.505 52.7261C148.532 52.6705 150.032 52.6428 150.273 51.3652C150.939 48.1251 150.162 44.7739 150.671 41.5153C151.393 39.6267 153.318 38.6177 154.753 37.3309C155.577 38.8399 155.087 40.534 155.077 42.1448C155.013 45.0516 155.161 47.9585 155.031 50.8653C154.892 53.9759 152.411 56.8734 149.254 57.1882C143.561 57.7899 137.821 57.0493 132.128 57.5955C131.767 63.2889 132.276 69.0193 131.86 74.7219C131.471 77.925 128.407 80.2023 125.296 80.3134C119.51 80.5078 113.715 80.3227 107.929 80.406C105.772 80.406 103.485 80.5726 101.504 79.545C99.2732 78.4526 97.7828 76.0827 97.6347 73.6295C97.5051 68.2694 98.0512 62.863 97.3477 57.5307C91.9968 57.216 86.6182 57.6418 81.2582 57.2993C78.7679 57.1419 76.1573 55.7996 75.213 53.3834C73.9077 50.4302 75.0094 46.8568 77.3237 44.7369C80.101 42.1911 83.4614 40.3581 86.9423 38.9972C87.5533 37.5994 88.0624 36.0071 89.3955 35.0998ZM106.772 45.1164C107.355 46.9216 109.355 47.5512 110.864 48.3936C111.891 48.0881 112.947 47.9215 114.002 47.7919C111.826 46.394 109.531 44.6721 106.772 45.1072V45.1164ZM120.001 47.2919C118.566 47.8474 116.696 48.0325 115.927 49.5415C118.918 50.2543 121.547 48.6806 123.685 46.7735C122.445 46.6717 120.908 46.1255 120.001 47.2827V47.2919ZM102.328 50.1895C100.838 51.7633 102.106 53.9018 102.032 55.744C102.013 61.3633 102.032 66.9826 102.05 72.6019C101.995 73.648 102.504 74.5923 102.921 75.5273C105.485 75.8513 108.077 75.5458 110.632 75.8791C111.002 75.8235 111.752 75.6939 112.132 75.6384C112.086 68.649 112.132 61.6596 112.086 54.6702C112.03 53.1242 112.308 51.6059 112.613 50.1062C110.345 50.2729 108.197 49.523 106.031 49.0138C104.652 48.5695 103.161 48.9953 102.328 50.2081V50.1895ZM121.334 50.6524C119.371 51.106 116.807 51.8003 115.353 49.9396C113.465 49.9581 113.271 52.1521 113.169 53.5685C113.058 60.9282 113.206 68.2879 113.132 75.6569C117.353 75.7124 121.575 75.7957 125.787 75.6291C127.083 75.7032 127.573 74.1664 127.592 73.1111C127.749 66.242 127.388 59.3545 127.786 52.4947C127.833 51.4948 126.944 50.7913 126.49 49.9859C124.731 49.8007 122.991 50.0785 121.325 50.6617L121.334 50.6524Z" fill="white"/>
<path d="M119.882 35.3497C121.743 34.9238 123.539 33.7852 125.492 34.3684C125.992 36.1366 125.011 37.7011 124.594 39.3674C124.261 41.8947 120.558 42.7372 118.91 40.9412C117.207 39.3952 117.67 36.1643 119.882 35.3497Z" fill="white"/>
<path d="M55.3473 150.244C56.9483 147.029 57.621 143.316 59.6322 140.356L60.6614 140.302C62.8207 145.192 63.4462 150.627 65.027 155.733C66.3589 152.134 67.61 148.502 69.0832 144.957C69.6482 144.91 70.2133 144.863 70.7783 144.822C72.0631 147.991 73.2335 151.199 74.5587 154.354C75.2852 152.988 75.8771 151.509 76.9265 150.352C91.1735 150.089 105.434 150.311 119.688 150.237C124.921 150.291 130.161 150.109 135.395 150.372C135.361 150.809 135.3 151.69 135.274 152.127C133.39 153.224 131.116 152.666 129.051 152.787C112.06 152.814 95.0616 152.672 78.07 152.861C77.2157 154.798 76.3883 156.796 75.0766 158.484C74.6932 158.477 73.9197 158.457 73.5295 158.451C71.9353 155.733 71.4846 152.497 69.8366 149.793C68.6661 153.574 66.8768 157.132 65.8678 160.96C65.1615 160.98 64.462 160.986 63.7624 161C62.5785 155.78 61.0179 150.654 59.8744 145.421C58.7914 147.816 58.5896 150.944 56.5245 152.699C39.4522 152.894 22.3665 152.699 5.28753 152.8C3.80766 152.834 2.34125 152.598 0.89502 152.316C0.955559 151.65 1.02283 150.991 1.08337 150.331C19.1714 150.13 37.2594 150.271 55.3473 150.244Z" fill="white"/>
<path d="M146.891 142.683C149.023 142.555 153.146 142.73 152.312 145.845C150.153 144.91 147.691 143.531 145.35 144.762C142.357 145.865 141.207 149.746 142.794 152.41C144.213 154.61 147.375 155.888 149.783 154.556C150.684 154.273 151.72 152.961 152.514 154.092C152.824 155.793 150.812 156.157 149.608 156.506C146.393 157.367 142.364 156.184 140.917 152.982C138.435 148.751 141.785 142.32 146.891 142.683Z" fill="white"/>
<path d="M219.619 142.777C222.942 142.71 226.265 142.764 229.588 142.777C229.588 143.174 229.595 143.961 229.602 144.351C226.958 144.372 224.321 144.378 221.684 144.378C221.671 145.724 221.664 147.076 221.644 148.428C223.944 148.744 226.265 148.784 228.586 148.73C228.566 149.141 228.539 149.961 228.519 150.372C226.245 150.379 223.965 150.392 221.691 150.372C221.684 151.899 221.684 153.432 221.677 154.966C224.409 154.966 227.133 154.966 229.864 154.986C229.871 155.37 229.884 156.123 229.891 156.506C226.474 156.54 223.05 156.547 219.633 156.533C219.612 151.946 219.66 147.365 219.619 142.777Z" fill="white"/>
<path d="M165.261 156.533C166.889 151.778 169.256 147.325 171.308 142.744C171.853 142.771 172.943 142.818 173.487 142.838C175.331 147.466 177.665 151.885 179.548 156.493H177.429C177.18 155.901 176.932 155.309 176.676 154.717C176.562 154.32 176.326 153.527 176.212 153.13C173.689 153.103 171.167 153.116 168.644 153.11C168.133 154.246 167.622 155.376 167.117 156.507L165.261 156.533ZM169.357 151.536C171.214 151.542 173.084 151.542 174.947 151.536C174.449 149.087 173.286 146.874 172.203 144.647C171.342 146.982 170.272 149.228 169.357 151.536Z" fill="white"/>
<path d="M193.365 142.771C196.163 142.824 199.002 142.495 201.773 143.026C205.722 144.472 205.614 150.58 201.753 152.08C202.843 153.526 203.899 155.02 204.605 156.701C201.941 156.937 201.181 154.085 199.816 152.396C198.356 152.417 196.896 152.43 195.437 152.444C195.43 153.849 195.416 155.262 195.403 156.675C194.905 156.607 193.916 156.486 193.425 156.426C193.264 151.878 193.425 147.325 193.365 142.771ZM195.437 144.372C195.43 146.41 195.423 148.455 195.41 150.493C197.461 150.439 199.627 150.802 201.598 150.076C203.24 148.791 202.782 146.605 201.914 145.017C199.795 144.472 197.616 144.264 195.437 144.372Z" fill="white"/>
<path d="M102.642 110.658C106.698 110.2 111.272 109.999 114.723 112.568C114.111 113.853 113.519 115.151 112.941 116.456C110.048 115.151 106.671 114.142 103.55 115.239C102.279 115.622 101.431 117.095 102.043 118.36C105.777 121.286 111.649 119.974 114.683 124.03C116.654 127.199 115.328 131.894 111.851 133.441C106.9 135.775 100.799 134.961 96.144 132.271C96.3727 130.703 97.0925 129.291 97.8728 127.945C101.384 130.138 106.039 131.248 109.893 129.277C109.833 128.356 110.384 127.145 109.591 126.438C105.582 123.963 99.4536 124.986 96.9109 120.324C94.94 116.113 98.3504 111.377 102.642 110.658Z" fill="white"/>
<path d="M179.326 119.1C180.449 114.896 184.182 111.667 188.34 110.638C191.945 110.207 195.934 110.066 199.069 112.218C205.526 115.783 206.73 125.752 201.504 130.871C199.64 132.889 197.071 134.033 194.441 134.665C189.678 135.277 184.344 133.972 181.377 129.97C178.868 126.977 178.62 122.779 179.326 119.1ZM188.797 115.414C187.317 116.463 185.736 117.6 185.07 119.369C184.277 121.178 184.606 123.196 184.707 125.1C186.12 128.833 190.391 130.966 194.205 129.654C200.044 128.214 200.885 119.18 195.961 116.153C193.842 114.741 191.178 115.084 188.797 115.414Z" fill="white"/>
<path d="M0.0332274 110.658C1.85615 110.658 3.67235 110.658 5.49527 110.658C5.51545 118.541 5.50873 126.425 5.49527 134.309C3.66562 134.309 1.83597 134.302 0.00632012 134.295C0.0197734 126.418 -0.027314 118.541 0.0264993 110.664L0.0332274 110.658Z" fill="white"/>
<path d="M11.1122 110.651C12.619 110.651 14.119 110.651 15.6191 110.644C19.534 115.434 23.5296 120.156 27.3638 125.012C27.4513 120.223 27.3705 115.434 27.4109 110.644C29.2204 110.651 31.0231 110.658 32.8326 110.644C32.8393 118.528 32.8393 126.411 32.8326 134.302C31.0366 134.026 28.5544 135.122 27.384 133.266C23.8054 128.88 20.2605 124.467 16.581 120.176C16.4733 124.885 16.5608 129.593 16.5339 134.302C14.7244 134.295 12.9149 134.302 11.1055 134.288C11.1256 126.405 11.1055 118.528 11.1122 110.651Z" fill="white"/>
<path d="M38.4157 134.288C38.4291 126.412 38.3686 118.528 38.4426 110.651C44.3688 110.651 50.295 110.651 56.2212 110.651C56.2212 112.164 56.2212 113.685 56.2144 115.198C52.1246 115.205 48.0348 115.171 43.9517 115.205C43.9517 117.236 43.9517 119.268 43.9517 121.299C47.6043 121.299 51.2569 121.286 54.9095 121.313C54.9095 122.833 54.9095 124.346 54.8422 125.867C51.2098 125.833 47.5774 125.84 43.945 125.86C43.9652 128.672 43.945 131.483 43.9585 134.295C42.1086 134.309 40.2588 134.302 38.4157 134.288Z" fill="white"/>
<path d="M65.5378 111.398C70.6971 109.373 77.3565 110.113 81.1638 114.458C85.2334 118.918 85.1796 126.452 80.9687 130.804C75.3587 136.845 63.9032 135.977 59.8201 128.604C56.1541 122.638 58.9725 113.94 65.5378 111.398ZM68.3361 115.38C66.2642 116.584 64.1453 118.44 64.0377 121.01C63.8763 123.048 63.8023 125.342 65.1947 127.017C67.3741 130.367 72.3586 130.838 75.5672 128.766C79.6637 125.9 79.5696 118.864 75.3318 116.173C73.2936 114.741 70.6567 115.084 68.3361 115.38Z" fill="white"/>
<path d="M119.405 110.651C125.351 110.651 131.298 110.644 137.244 110.651C137.237 112.158 137.237 113.671 137.231 115.178C133.121 115.191 129.017 115.171 124.907 115.185C124.907 116.887 124.914 118.582 124.901 120.283C128.587 120.337 132.28 120.088 135.953 120.465C135.926 121.73 135.919 123.001 135.939 124.272C132.273 124.689 128.573 124.373 124.894 124.488C124.914 126.277 124.907 128.073 124.894 129.862C129.165 129.876 133.43 129.856 137.702 129.889C137.695 131.356 137.688 132.822 137.688 134.288C131.587 134.295 125.493 134.309 119.392 134.282C119.425 126.405 119.385 118.528 119.405 110.644V110.651Z" fill="white"/>
<path d="M142.081 134.302C142.067 126.411 142.06 118.528 142.081 110.644C143.581 110.651 145.087 110.658 146.587 110.671C150.435 115.447 154.377 120.142 158.225 124.911C158.332 120.156 158.225 115.407 158.299 110.651C160.095 110.651 161.897 110.651 163.693 110.664C163.707 118.548 163.666 126.425 163.714 134.309C162.113 134.127 160.283 134.705 158.837 133.966C155.097 129.331 151.31 124.743 147.529 120.142C147.422 124.858 147.482 129.573 147.482 134.288C145.679 134.302 143.877 134.302 142.081 134.302Z" fill="white"/>
<path d="M169.243 110.664C171.059 110.651 172.882 110.644 174.705 110.651C174.759 118.535 174.698 126.418 174.739 134.302C172.902 134.302 171.066 134.302 169.229 134.255C169.243 126.391 169.223 118.528 169.243 110.664Z" fill="white"/>
<path d="M208.883 110.678C212.764 110.678 216.659 110.563 220.54 110.711C224.132 110.947 228.121 112.951 229.056 116.705C230.327 120.613 228.444 125.113 224.697 126.855C226.386 129.344 228.128 131.806 229.836 134.288C227.892 134.288 225.948 134.389 224.011 134.255C222.269 132.237 220.964 129.855 219.336 127.737C217.661 127.763 215.986 127.777 214.318 127.837C214.338 129.983 214.338 132.136 214.331 134.288C212.509 134.309 210.692 134.309 208.869 134.288C208.903 126.418 208.883 118.548 208.883 110.678ZM214.318 115.299C214.352 117.996 214.338 120.694 214.338 123.391C216.78 123.297 219.39 123.828 221.711 122.893C224.267 121.676 224.314 118.225 222.72 116.2C222.356 116.012 221.623 115.629 221.26 115.44C218.953 115.205 216.632 115.205 214.318 115.299Z" fill="white"/>
</svg>
